<mxfile host="app.diagrams.net" agent="Mozilla/5.0 (Macintosh; Intel Mac OS X 10_15_7) AppleWebKit/605.1.15 (KHTML, like Gecko) Version/18.1.1 Safari/605.1.15" version="26.0.6">
  <diagram id="prtHgNgQTEPvFCAcTncT" name="Page-1">
    <mxGraphModel dx="1321" dy="784" grid="1" gridSize="10" guides="1" tooltips="1" connect="1" arrows="1" fold="1" page="1" pageScale="1" pageWidth="827" pageHeight="1169" math="0" shadow="0">
      <root>
        <mxCell id="0" />
        <mxCell id="1" parent="0" />
        <mxCell id="L4A3wVSRyTddzCOH3VTf-1" value="user" style="shape=actor;whiteSpace=wrap;html=1;" vertex="1" parent="1">
          <mxGeometry y="400" width="40" height="60" as="geometry" />
        </mxCell>
        <mxCell id="L4A3wVSRyTddzCOH3VTf-12" style="rounded=0;orthogonalLoop=1;jettySize=auto;html=1;entryX=0;entryY=0.5;entryDx=0;entryDy=0;" edge="1" parent="1" target="L4A3wVSRyTddzCOH3VTf-11">
          <mxGeometry relative="1" as="geometry">
            <mxPoint x="350" y="440" as="sourcePoint" />
          </mxGeometry>
        </mxCell>
        <mxCell id="L4A3wVSRyTddzCOH3VTf-13" value="&lt;font style=&quot;font-size: 16px;&quot;&gt;cs-client&lt;/font&gt;" style="edgeLabel;html=1;align=center;verticalAlign=middle;resizable=0;points=[];" vertex="1" connectable="0" parent="L4A3wVSRyTddzCOH3VTf-12">
          <mxGeometry x="-0.0333" relative="1" as="geometry">
            <mxPoint x="12" as="offset" />
          </mxGeometry>
        </mxCell>
        <mxCell id="L4A3wVSRyTddzCOH3VTf-2" value="nginx:443" style="rounded=0;whiteSpace=wrap;html=1;" vertex="1" parent="1">
          <mxGeometry x="230" y="410" width="120" height="60" as="geometry" />
        </mxCell>
        <mxCell id="L4A3wVSRyTddzCOH3VTf-4" value="" style="endArrow=classic;html=1;rounded=0;entryX=0;entryY=0.5;entryDx=0;entryDy=0;exitX=1.075;exitY=0.6;exitDx=0;exitDy=0;exitPerimeter=0;" edge="1" parent="1" source="L4A3wVSRyTddzCOH3VTf-1" target="L4A3wVSRyTddzCOH3VTf-2">
          <mxGeometry width="50" height="50" relative="1" as="geometry">
            <mxPoint x="40" y="445" as="sourcePoint" />
            <mxPoint x="440" y="380" as="targetPoint" />
          </mxGeometry>
        </mxCell>
        <mxCell id="L4A3wVSRyTddzCOH3VTf-5" value="&lt;font style=&quot;font-size: 12px;&quot;&gt;&amp;nbsp; https://test-regsys.wuxiapptec.com&lt;/font&gt;" style="edgeLabel;html=1;align=center;verticalAlign=middle;resizable=0;points=[];" vertex="1" connectable="0" parent="L4A3wVSRyTddzCOH3VTf-4">
          <mxGeometry x="-0.4115" y="3" relative="1" as="geometry">
            <mxPoint x="32" y="-14" as="offset" />
          </mxGeometry>
        </mxCell>
        <mxCell id="L4A3wVSRyTddzCOH3VTf-6" value="" style="endArrow=none;dashed=1;html=1;rounded=0;" edge="1" parent="1">
          <mxGeometry width="50" height="50" relative="1" as="geometry">
            <mxPoint x="880" y="680" as="sourcePoint" />
            <mxPoint x="880" y="680" as="targetPoint" />
            <Array as="points">
              <mxPoint x="140" y="680" />
              <mxPoint x="140" y="200" />
              <mxPoint x="880" y="200" />
            </Array>
          </mxGeometry>
        </mxCell>
        <mxCell id="L4A3wVSRyTddzCOH3VTf-7" value="&lt;font style=&quot;font-size: 16px;&quot;&gt;测试服务器：10.18.202.154&lt;/font&gt;" style="edgeLabel;html=1;align=center;verticalAlign=middle;resizable=0;points=[];" vertex="1" connectable="0" parent="L4A3wVSRyTddzCOH3VTf-6">
          <mxGeometry x="0.3061" relative="1" as="geometry">
            <mxPoint x="40" as="offset" />
          </mxGeometry>
        </mxCell>
        <mxCell id="L4A3wVSRyTddzCOH3VTf-8" value="" style="endArrow=classic;html=1;rounded=0;exitX=1;exitY=0.5;exitDx=0;exitDy=0;entryX=0;entryY=0.5;entryDx=0;entryDy=0;" edge="1" parent="1" source="L4A3wVSRyTddzCOH3VTf-2" target="L4A3wVSRyTddzCOH3VTf-10">
          <mxGeometry width="50" height="50" relative="1" as="geometry">
            <mxPoint x="390" y="430" as="sourcePoint" />
            <mxPoint x="480" y="330" as="targetPoint" />
          </mxGeometry>
        </mxCell>
        <mxCell id="L4A3wVSRyTddzCOH3VTf-9" value="RegistryCxn" style="text;html=1;align=center;verticalAlign=middle;resizable=0;points=[];autosize=1;strokeColor=none;fillColor=none;" vertex="1" parent="1">
          <mxGeometry x="369" y="380" width="90" height="30" as="geometry" />
        </mxCell>
        <mxCell id="L4A3wVSRyTddzCOH3VTf-10" value="RegistryCxn:8001" style="rounded=0;whiteSpace=wrap;html=1;" vertex="1" parent="1">
          <mxGeometry x="480" y="320" width="120" height="60" as="geometry" />
        </mxCell>
        <mxCell id="L4A3wVSRyTddzCOH3VTf-11" value="cs-client:8002" style="rounded=0;whiteSpace=wrap;html=1;" vertex="1" parent="1">
          <mxGeometry x="480" y="390" width="120" height="60" as="geometry" />
        </mxCell>
        <mxCell id="L4A3wVSRyTddzCOH3VTf-14" value="&lt;font style=&quot;font-size: 13px;&quot;&gt;RegistryCS&lt;/font&gt;" style="edgeStyle=none;orthogonalLoop=1;jettySize=auto;html=1;rounded=0;entryX=0;entryY=0.5;entryDx=0;entryDy=0;exitX=1;exitY=0.5;exitDx=0;exitDy=0;" edge="1" parent="1" source="L4A3wVSRyTddzCOH3VTf-2" target="L4A3wVSRyTddzCOH3VTf-15">
          <mxGeometry x="0.2268" y="1" width="80" relative="1" as="geometry">
            <mxPoint x="345" y="460" as="sourcePoint" />
            <mxPoint x="425" y="460" as="targetPoint" />
            <Array as="points" />
            <mxPoint as="offset" />
          </mxGeometry>
        </mxCell>
        <mxCell id="L4A3wVSRyTddzCOH3VTf-15" value="RegisryCS:8003" style="rounded=0;whiteSpace=wrap;html=1;" vertex="1" parent="1">
          <mxGeometry x="480" y="460" width="120" height="60" as="geometry" />
        </mxCell>
        <mxCell id="L4A3wVSRyTddzCOH3VTf-18" value="" style="endArrow=classic;html=1;rounded=0;entryX=0;entryY=0.5;entryDx=0;entryDy=0;" edge="1" parent="1" target="L4A3wVSRyTddzCOH3VTf-21">
          <mxGeometry width="50" height="50" relative="1" as="geometry">
            <mxPoint x="350" y="440" as="sourcePoint" />
            <mxPoint x="480" y="600" as="targetPoint" />
          </mxGeometry>
        </mxCell>
        <mxCell id="L4A3wVSRyTddzCOH3VTf-20" value="&lt;font style=&quot;font-size: 13px;&quot;&gt;bioreg-web&lt;/font&gt;" style="text;html=1;align=center;verticalAlign=middle;resizable=0;points=[];autosize=1;strokeColor=none;fillColor=none;rotation=0;" vertex="1" parent="1">
          <mxGeometry x="380" y="500" width="90" height="30" as="geometry" />
        </mxCell>
        <mxCell id="L4A3wVSRyTddzCOH3VTf-21" value="biotookit:8004" style="rounded=0;whiteSpace=wrap;html=1;" vertex="1" parent="1">
          <mxGeometry x="480" y="530" width="120" height="60" as="geometry" />
        </mxCell>
        <mxCell id="L4A3wVSRyTddzCOH3VTf-22" value="postgresql:5432" style="shape=datastore;whiteSpace=wrap;html=1;" vertex="1" parent="1">
          <mxGeometry x="717" y="300" width="110" height="80" as="geometry" />
        </mxCell>
        <mxCell id="L4A3wVSRyTddzCOH3VTf-23" value="mysql:3306" style="shape=datastore;whiteSpace=wrap;html=1;" vertex="1" parent="1">
          <mxGeometry x="717" y="470" width="110" height="82" as="geometry" />
        </mxCell>
        <mxCell id="L4A3wVSRyTddzCOH3VTf-25" value="" style="endArrow=none;dashed=1;html=1;rounded=0;" edge="1" parent="1">
          <mxGeometry width="50" height="50" relative="1" as="geometry">
            <mxPoint x="860" y="600" as="sourcePoint" />
            <mxPoint x="860" y="600" as="targetPoint" />
            <Array as="points">
              <mxPoint x="860" y="250" />
              <mxPoint x="670" y="250" />
              <mxPoint x="670" y="600" />
            </Array>
          </mxGeometry>
        </mxCell>
        <mxCell id="L4A3wVSRyTddzCOH3VTf-26" value="&lt;font style=&quot;font-size: 17px;&quot;&gt;Databases&lt;/font&gt;" style="edgeLabel;html=1;align=center;verticalAlign=middle;resizable=0;points=[];" vertex="1" connectable="0" parent="L4A3wVSRyTddzCOH3VTf-25">
          <mxGeometry x="-0.0389" y="-3" relative="1" as="geometry">
            <mxPoint x="19" as="offset" />
          </mxGeometry>
        </mxCell>
        <mxCell id="L4A3wVSRyTddzCOH3VTf-28" value="" style="endArrow=classic;html=1;rounded=0;entryX=0;entryY=0.613;entryDx=0;entryDy=0;entryPerimeter=0;exitX=1;exitY=0.5;exitDx=0;exitDy=0;" edge="1" parent="1" source="L4A3wVSRyTddzCOH3VTf-10" target="L4A3wVSRyTddzCOH3VTf-22">
          <mxGeometry width="50" height="50" relative="1" as="geometry">
            <mxPoint x="390" y="430" as="sourcePoint" />
            <mxPoint x="440" y="380" as="targetPoint" />
          </mxGeometry>
        </mxCell>
        <mxCell id="L4A3wVSRyTddzCOH3VTf-29" value="" style="endArrow=classic;html=1;rounded=0;entryX=0.027;entryY=0.61;entryDx=0;entryDy=0;entryPerimeter=0;exitX=1;exitY=0.5;exitDx=0;exitDy=0;" edge="1" parent="1" source="L4A3wVSRyTddzCOH3VTf-15" target="L4A3wVSRyTddzCOH3VTf-23">
          <mxGeometry width="50" height="50" relative="1" as="geometry">
            <mxPoint x="390" y="430" as="sourcePoint" />
            <mxPoint x="440" y="380" as="targetPoint" />
          </mxGeometry>
        </mxCell>
        <mxCell id="L4A3wVSRyTddzCOH3VTf-30" value="" style="endArrow=classic;html=1;rounded=0;entryX=0;entryY=0.7;entryDx=0;entryDy=0;" edge="1" parent="1" target="L4A3wVSRyTddzCOH3VTf-22">
          <mxGeometry width="50" height="50" relative="1" as="geometry">
            <mxPoint x="600" y="490" as="sourcePoint" />
            <mxPoint x="440" y="380" as="targetPoint" />
            <Array as="points" />
          </mxGeometry>
        </mxCell>
        <mxCell id="L4A3wVSRyTddzCOH3VTf-31" style="rounded=0;orthogonalLoop=1;jettySize=auto;html=1;exitX=1;exitY=0.5;exitDx=0;exitDy=0;entryX=-0.018;entryY=0.61;entryDx=0;entryDy=0;entryPerimeter=0;" edge="1" parent="1" source="L4A3wVSRyTddzCOH3VTf-21" target="L4A3wVSRyTddzCOH3VTf-23">
          <mxGeometry relative="1" as="geometry" />
        </mxCell>
        <mxCell id="L4A3wVSRyTddzCOH3VTf-33" value="&lt;font style=&quot;font-size: 13px;&quot;&gt;Marvinjs服务器(https://sta-marvinjs.wuxiapptc.com)&lt;/font&gt;" style="text;html=1;align=center;verticalAlign=middle;resizable=0;points=[];autosize=1;strokeColor=none;fillColor=none;" vertex="1" parent="1">
          <mxGeometry x="414" width="320" height="30" as="geometry" />
        </mxCell>
        <mxCell id="L4A3wVSRyTddzCOH3VTf-34" value="" style="endArrow=none;html=1;rounded=0;" edge="1" parent="1">
          <mxGeometry width="50" height="50" relative="1" as="geometry">
            <mxPoint x="685" y="102" as="sourcePoint" />
            <mxPoint x="685" y="102" as="targetPoint" />
            <Array as="points">
              <mxPoint x="445" y="102" />
              <mxPoint x="445" y="22" />
              <mxPoint x="685" y="22" />
            </Array>
          </mxGeometry>
        </mxCell>
        <mxCell id="L4A3wVSRyTddzCOH3VTf-35" value="&lt;font style=&quot;font-size: 19px;&quot;&gt;MarvinJs:443&lt;/font&gt;" style="text;html=1;align=center;verticalAlign=middle;resizable=0;points=[];autosize=1;strokeColor=none;fillColor=none;" vertex="1" parent="1">
          <mxGeometry x="505" y="42" width="140" height="40" as="geometry" />
        </mxCell>
        <mxCell id="L4A3wVSRyTddzCOH3VTf-36" value="" style="endArrow=classic;html=1;rounded=0;exitX=0.5;exitY=0;exitDx=0;exitDy=0;" edge="1" parent="1" source="L4A3wVSRyTddzCOH3VTf-2">
          <mxGeometry width="50" height="50" relative="1" as="geometry">
            <mxPoint x="390" y="430" as="sourcePoint" />
            <mxPoint x="490" y="100" as="targetPoint" />
          </mxGeometry>
        </mxCell>
        <mxCell id="L4A3wVSRyTddzCOH3VTf-38" value="" style="endArrow=classic;html=1;rounded=0;entryX=0.388;entryY=1.057;entryDx=0;entryDy=0;entryPerimeter=0;" edge="1" parent="1" target="L4A3wVSRyTddzCOH3VTf-39">
          <mxGeometry width="50" height="50" relative="1" as="geometry">
            <mxPoint x="160" y="440" as="sourcePoint" />
            <mxPoint x="160" y="170" as="targetPoint" />
          </mxGeometry>
        </mxCell>
        <mxCell id="L4A3wVSRyTddzCOH3VTf-39" value="AD 认证" style="rounded=0;whiteSpace=wrap;html=1;" vertex="1" parent="1">
          <mxGeometry x="70" y="30" width="240" height="70" as="geometry" />
        </mxCell>
        <mxCell id="L4A3wVSRyTddzCOH3VTf-40" value="login" style="text;align=center;verticalAlign=middle;resizable=0;points=[];autosize=1;strokeColor=none;fillColor=none;fontSize=14;" vertex="1" parent="1">
          <mxGeometry x="165" y="260" width="50" height="30" as="geometry" />
        </mxCell>
        <mxCell id="L4A3wVSRyTddzCOH3VTf-41" value="mjs" style="text;html=1;align=center;verticalAlign=middle;resizable=0;points=[];autosize=1;strokeColor=none;fillColor=none;fontSize=14;" vertex="1" parent="1">
          <mxGeometry x="364" y="260" width="50" height="30" as="geometry" />
        </mxCell>
      </root>
    </mxGraphModel>
  </diagram>
</mxfile>
